<?xml version="1.0" standalone="no"?>
<!DOCTYPE svg PUBLIC "-//W3C//DTD SVG 20010904//EN"
 "http://www.w3.org/TR/2001/REC-SVG-20010904/DTD/svg10.dtd">
<svg version="1.0" xmlns="http://www.w3.org/2000/svg"
 width="341.000000pt" height="341.000000pt" viewBox="0 0 341.000000 341.000000"
 preserveAspectRatio="xMidYMid meet">

<g transform="translate(0.000000,341.000000) scale(0.100000,-0.100000)"
fill="#000000" stroke="none">
<path d="M546 2163 c-11 -11 -6 -23 9 -23 8 0 15 4 15 9 0 13 -16 22 -24 14z"/>
<path d="M596 2154 c-9 -23 -8 -24 14 -24 23 0 26 13 6 29 -11 9 -15 8 -20 -5z"/>
<path d="M660 2150 c0 -5 5 -10 10 -10 6 0 10 5 10 10 0 6 -4 10 -10 10 -5 0
-10 -4 -10 -10z"/>
<path d="M440 2104 c0 -9 7 -14 17 -12 25 5 28 28 4 28 -12 0 -21 -6 -21 -16z"/>
<path d="M1145 2112 c-12 -12 -3 -65 14 -83 13 -15 29 -19 52 -17 30 3 34 7
37 36 3 25 -2 37 -20 52 -21 17 -71 24 -83 12z m55 -42 c0 -5 -4 -10 -10 -10
-5 0 -10 5 -10 10 0 6 5 10 10 10 6 0 10 -4 10 -10z"/>
<path d="M2439 2108 c0 -12 0 -106 1 -355 l0 -73 45 0 c29 0 45 4 45 13 1 20
1 401 0 415 0 8 -16 12 -45 12 -29 0 -45 -4 -46 -12z m59 -208 c-4 -243 -22
-245 -26 -2 -2 159 0 182 13 182 13 0 15 -23 13 -180z"/>
<path d="M2897 2113 c-4 -3 -7 -103 -7 -220 l0 -214 63 1 c34 1 80 -1 102 -4
88 -15 150 53 150 164 -1 128 -74 189 -187 157 l-28 -7 0 65 0 65 -43 0 c-24
0 -47 -3 -50 -7z m53 -106 c0 -40 4 -77 10 -83 6 -6 6 -22 -2 -46 -8 -26 -8
-48 0 -77 6 -24 6 -43 1 -47 -5 -3 -9 -14 -9 -25 0 -10 -4 -19 -10 -19 -6 0
-10 68 -10 185 0 117 4 185 10 185 6 0 10 -31 10 -73z m163 -48 c36 -16 52
-54 52 -125 0 -56 -3 -66 -29 -93 -19 -20 -39 -31 -55 -30 -23 0 -24 1 -6 8
38 16 58 50 63 105 5 65 -16 112 -61 131 -27 12 -28 14 -10 15 12 0 33 -5 46
-11z m-23 -58 c18 -34 12 -109 -10 -131 -26 -26 -36 -25 -67 6 -22 22 -25 32
-20 70 2 24 10 51 17 59 18 22 67 19 80 -4z"/>
<path d="M690 2101 c0 -11 39 -25 47 -18 3 3 2 10 -2 16 -8 13 -45 15 -45 2z"/>
<path d="M775 2100 c3 -5 10 -10 16 -10 5 0 9 5 9 10 0 6 -7 10 -16 10 -8 0
-12 -4 -9 -10z"/>
<path d="M327 2083 c-4 -3 -2 -12 4 -20 9 -10 15 -10 25 -2 8 6 14 15 14 20 0
10 -34 12 -43 2z"/>
<path d="M2210 2083 c-67 -22 -90 -61 -71 -124 11 -35 20 -44 64 -65 29 -13
57 -24 63 -24 25 0 64 -42 64 -69 0 -69 -105 -91 -147 -31 -8 11 -23 20 -34
20 -30 0 -23 -35 13 -65 29 -25 38 -27 101 -23 61 3 72 7 93 31 30 35 33 104
7 136 -10 11 -49 33 -88 48 -83 34 -108 67 -81 109 23 34 87 34 114 0 13 -18
25 -23 41 -19 24 6 25 7 10 35 -19 35 -100 58 -149 41z"/>
<path d="M1320 1890 l0 -190 83 0 c167 1 230 56 230 201 0 130 -60 179 -220
179 l-93 0 0 -190z m200 135 c41 -21 60 -63 60 -132 0 -103 -52 -153 -160
-153 l-50 0 0 150 0 150 60 0 c35 0 74 -7 90 -15z"/>
<path d="M1390 1895 c0 -83 4 -135 10 -135 6 0 10 47 10 121 l0 121 59 -4 c33
-1 57 0 55 4 -7 10 -74 28 -106 28 l-28 0 0 -135z"/>
<path d="M1733 1893 l2 -188 95 0 c119 0 163 19 198 87 32 62 32 152 1 208
-34 61 -83 80 -202 80 l-96 0 2 -187z m206 132 c37 -19 61 -71 61 -132 0 -99
-56 -153 -157 -153 l-53 0 0 150 0 150 60 0 c34 0 74 -7 89 -15z"/>
<path d="M1810 1896 c0 -84 4 -136 10 -136 6 0 10 47 10 120 l0 120 52 0 c67
0 51 21 -21 28 l-51 5 0 -137z"/>
<path d="M520 2065 c0 -2 9 -9 20 -15 16 -9 20 -8 20 5 0 8 -9 15 -20 15 -11
0 -20 -2 -20 -5z"/>
<path d="M590 2045 c0 -29 10 -31 52 -9 24 12 28 18 17 25 -8 5 -26 9 -41 9
-23 0 -28 -4 -28 -25z"/>
<path d="M810 2056 c0 -7 7 -19 16 -26 12 -11 18 -10 32 4 15 15 15 18 2 26
-22 14 -50 12 -50 -4z"/>
<path d="M282 2038 c-7 -7 -12 -16 -12 -20 0 -12 28 -10 36 3 10 17 -10 31
-24 17z"/>
<path d="M465 2004 c-8 -20 -15 -38 -15 -40 0 -12 71 -1 90 14 l23 19 -35 21
c-20 12 -38 22 -42 22 -3 0 -13 -16 -21 -36z"/>
<path d="M720 2028 c0 -22 27 -92 36 -95 5 -1 18 10 28 24 l20 26 -34 29 c-37
31 -50 35 -50 16z"/>
<path d="M2228 2033 c-21 -5 -32 -37 -20 -58 7 -13 10 -12 20 10 8 17 19 25
37 25 14 0 25 5 25 10 0 6 -4 10 -9 10 -5 0 -15 2 -23 4 -7 2 -21 2 -30 -1z"/>
<path d="M2384 2018 c1 -18 -5 -24 -26 -26 -17 -2 -28 -9 -28 -19 0 -12 7 -14
31 -9 17 3 36 6 41 6 6 0 7 12 3 28 -9 36 -22 49 -21 20z"/>
<path d="M410 2015 c-10 -12 -10 -19 -2 -27 14 -14 17 -11 26 20 8 25 -5 29
-24 7z"/>
<path d="M645 2006 c-19 -14 -19 -15 5 -35 14 -11 33 -20 43 -21 20 0 20 -1 6
39 -12 34 -25 38 -54 17z"/>
<path d="M874 2009 c-10 -17 23 -46 38 -31 8 8 8 15 -2 27 -15 18 -26 19 -36
4z"/>
<path d="M1641 1984 c16 -43 13 -135 -6 -182 -35 -85 -109 -122 -253 -122 -53
-1 -63 -3 -48 -11 29 -17 194 -6 239 16 80 38 123 156 93 258 -9 31 -21 59
-26 62 -6 4 -6 -4 1 -21z"/>
<path d="M2060 1980 c16 -55 11 -141 -9 -185 -37 -81 -109 -115 -247 -115 -41
0 -63 -4 -59 -10 8 -13 160 -13 209 1 79 22 121 72 136 162 9 57 -3 133 -25
163 -13 17 -13 15 -5 -16z"/>
<path d="M2661 2000 c-41 -10 -69 -37 -73 -69 -3 -21 2 -26 36 -33 33 -7 42
-5 58 12 15 16 23 18 39 10 29 -16 15 -27 -42 -35 -75 -10 -112 -47 -112 -109
0 -37 5 -53 25 -72 29 -29 77 -40 117 -26 16 6 46 7 69 2 61 -11 65 -1 60 137
-4 120 -12 148 -49 171 -26 16 -88 22 -128 12z m-4 -57 c-9 -9 -20 -13 -24 -9
-4 4 -1 11 7 16 25 16 35 11 17 -7z m130 -14 c15 -29 18 -219 3 -219 -12 0
-19 49 -18 136 0 39 -5 81 -12 94 -10 18 -9 21 2 18 7 -3 19 -15 25 -29z
m-141 -105 c-30 -29 -15 -93 24 -107 10 -4 7 -6 -7 -6 -31 -1 -63 33 -63 66 0
29 25 63 47 63 12 0 12 -3 -1 -16z m88 -38 c-9 -23 -43 -41 -56 -28 -17 17 -4
46 22 53 30 7 43 -2 34 -25z"/>
<path d="M1140 1842 c0 -169 5 -182 73 -182 l37 0 0 151 c0 171 -3 179 -69
179 l-41 0 0 -148z m45 82 c-23 -23 -28 -13 -8 16 10 14 18 19 21 12 2 -7 -4
-19 -13 -28z m15 -47 c0 -7 -9 -18 -20 -25 -23 -14 -25 -10 -8 18 14 23 28 26
28 7z m0 -60 c0 -7 -9 -18 -20 -25 -23 -14 -25 -10 -8 18 14 23 28 26 28 7z
m0 -54 c-1 -15 -30 -46 -37 -40 -3 4 2 16 12 27 19 21 25 24 25 13z"/>
<path d="M346 1959 c-19 -28 -18 -29 17 -22 18 4 27 11 25 21 -5 25 -25 25
-42 1z"/>
<path d="M807 1943 c-15 -14 -6 -31 19 -37 33 -9 39 -3 22 23 -13 21 -29 27
-41 14z"/>
<path d="M234 1929 c-3 -6 -2 -15 2 -19 12 -12 38 5 30 19 -9 14 -23 14 -32 0z"/>
<path d="M510 1915 c-11 -13 -9 -20 11 -41 l24 -26 7 34 c3 18 4 36 2 40 -8
13 -31 9 -44 -7z"/>
<path d="M587 1923 c-14 -14 -7 -110 9 -124 13 -11 22 -6 62 35 l47 47 -28 25
c-26 23 -75 32 -90 17z"/>
<path d="M375 1912 c-11 -2 -30 -8 -43 -13 l-23 -9 22 -42 c28 -55 27 -55 44
-32 13 18 31 92 23 98 -1 1 -12 0 -23 -2z"/>
<path d="M912 1884 c2 -11 11 -20 22 -22 13 -3 17 1 14 14 -2 11 -11 20 -22
22 -13 3 -17 -1 -14 -14z"/>
<path d="M760 1879 c0 -17 44 -89 55 -89 11 0 50 59 43 64 -1 2 -17 11 -35 20
-37 18 -63 21 -63 5z"/>
<path d="M441 1851 c-32 -45 -27 -51 39 -51 33 0 60 4 60 8 0 9 -63 72 -72 72
-4 0 -16 -13 -27 -29z"/>
<path d="M2185 1871 c5 -10 91 -41 109 -41 18 1 -25 22 -71 36 -24 7 -41 9
-38 5z"/>
<path d="M2398 1819 c9 -93 -53 -144 -165 -137 -55 3 -61 2 -41 -9 32 -17 133
-16 168 2 16 8 36 25 44 37 19 27 21 107 3 132 -11 15 -12 11 -9 -25z"/>
<path d="M280 1841 c0 -5 -3 -16 -6 -25 -4 -12 0 -16 15 -16 22 0 25 8 15 34
-7 17 -24 22 -24 7z"/>
<path d="M692 1827 c-30 -32 -28 -37 16 -37 37 0 38 1 34 30 -5 36 -21 38 -50
7z"/>
<path d="M177 1820 c-4 -15 0 -20 14 -20 12 0 19 7 19 20 0 11 -6 20 -14 20
-7 0 -16 -9 -19 -20z"/>
<path d="M867 1803 c-12 -11 -8 -23 8 -23 8 0 15 7 15 15 0 16 -12 20 -23 8z"/>
<path d="M966 1793 c-11 -11 -6 -23 9 -23 8 0 15 4 15 9 0 13 -16 22 -24 14z"/>
<path d="M174 1755 c-4 -9 0 -24 9 -33 19 -19 26 -15 29 18 4 29 -28 41 -38
15z"/>
<path d="M270 1733 c0 -65 14 -70 44 -18 14 26 26 49 26 51 0 2 -16 4 -35 4
-34 0 -35 -1 -35 -37z"/>
<path d="M417 1763 c-14 -13 -6 -49 16 -77 27 -33 42 -29 91 23 42 44 30 61
-42 61 -32 0 -62 -3 -65 -7z"/>
<path d="M641 1752 c2 -5 22 -29 43 -52 37 -41 40 -42 53 -24 8 10 13 33 11
49 -3 29 -5 30 -57 33 -30 2 -52 -1 -50 -6z"/>
<path d="M840 1740 c0 -6 7 -25 16 -42 19 -36 37 -26 32 18 -2 21 -9 30 -25
32 -13 2 -23 -2 -23 -8z"/>
<path d="M591 1726 c-7 -8 -11 -36 -9 -68 3 -51 4 -53 34 -56 19 -2 39 4 54
16 l23 19 -20 29 c-12 16 -32 39 -46 52 -21 19 -26 21 -36 8z"/>
<path d="M950 1724 c0 -9 7 -14 17 -12 25 5 28 28 4 28 -12 0 -21 -6 -21 -16z"/>
<path d="M341 1700 c-11 -19 -21 -38 -21 -41 0 -7 46 -29 60 -29 14 0 11 51
-4 80 l-14 24 -21 -34z"/>
<path d="M786 1685 c-26 -39 -21 -58 12 -50 38 9 44 18 33 48 -13 33 -24 34
-45 2z"/>
<path d="M186 1665 c4 -8 8 -15 10 -15 2 0 4 7 4 15 0 8 -4 15 -10 15 -5 0 -7
-7 -4 -15z"/>
<path d="M509 1654 c-24 -25 -24 -26 -5 -40 34 -24 46 -17 46 26 0 47 -8 49
-41 14z"/>
<path d="M960 1659 c0 -5 5 -7 10 -4 6 3 10 8 10 11 0 2 -4 4 -10 4 -5 0 -10
-5 -10 -11z"/>
<path d="M232 1629 c1 -12 9 -24 16 -27 9 -3 13 3 10 19 -1 12 -9 24 -16 27
-9 3 -13 -3 -10 -19z"/>
<path d="M901 1624 c-10 -22 -9 -25 6 -22 10 2 19 13 21 26 5 30 -12 28 -27
-4z"/>
<path d="M2817 1639 c-13 -8 -15 -14 -7 -30 14 -25 5 -39 -19 -32 -48 12 -83
-84 -43 -120 15 -14 57 -17 102 -8 7 1 -1 185 -8 193 -4 4 -15 2 -25 -3z m-11
-90 c10 -17 7 -70 -5 -82 -15 -15 -41 10 -41 38 0 48 27 74 46 44z"/>
<path d="M319 1603 c19 -38 36 -45 55 -24 17 18 16 19 -6 26 -63 18 -60 18
-49 -2z"/>
<path d="M811 1611 c-30 -8 -36 -24 -16 -41 13 -11 20 -9 40 10 40 37 32 47
-24 31z"/>
<path d="M1108 1603 c-26 -7 -22 -38 7 -57 17 -11 47 -16 100 -16 71 0 75 1
75 23 0 37 -28 52 -100 53 -36 1 -73 0 -82 -3z"/>
<path d="M440 1570 c0 -10 4 -30 10 -44 9 -25 9 -25 50 -9 22 9 40 19 40 23 0
14 -29 32 -65 40 -30 7 -35 5 -35 -10z"/>
<path d="M691 1582 c-27 -4 -71 -30 -71 -42 0 -12 69 -42 80 -35 9 6 26 74 19
78 -2 2 -15 1 -28 -1z"/>
<path d="M2022 1568 c-21 -21 -13 -48 18 -66 16 -9 30 -23 30 -29 0 -16 -32
-17 -48 -1 -9 9 -12 7 -12 -10 0 -18 6 -22 29 -22 28 0 61 22 61 40 0 14 -42
50 -57 50 -7 0 -13 7 -13 15 0 20 24 19 44 -1 15 -14 16 -14 16 4 0 12 -9 22
-22 26 -31 8 -32 8 -46 -6z"/>
<path d="M2110 1574 c0 -3 8 -18 19 -32 43 -62 53 -142 16 -128 -9 3 -18 -1
-22 -10 -7 -20 1 -27 25 -20 12 4 31 34 52 84 19 42 37 81 42 87 14 15 9 25
-12 25 -12 0 -20 -6 -18 -12 3 -19 -11 -68 -21 -68 -12 0 -31 48 -25 65 5 11
-1 15 -25 15 -17 0 -31 -3 -31 -6z"/>
<path d="M2276 1559 c-18 -27 -13 -40 24 -61 17 -9 30 -22 30 -28 0 -13 -33
-13 -47 1 -13 13 -28 -5 -18 -21 16 -25 95 0 95 30 0 13 -28 38 -50 45 -21 7
-28 35 -8 35 6 0 20 -7 30 -17 17 -15 18 -15 18 4 0 13 -8 23 -22 27 -33 9
-35 8 -52 -15z"/>
<path d="M2375 1563 c10 -26 13 -44 14 -80 1 -35 31 -53 56 -33 9 7 15 7 19 1
4 -6 12 -8 20 -5 9 3 11 21 8 62 -5 64 -13 78 -39 67 -12 -5 -14 -9 -5 -12 7
-3 12 -23 12 -49 0 -37 -3 -44 -19 -44 -22 0 -30 20 -28 70 1 30 -2 36 -22 38
-20 3 -23 1 -16 -15z"/>
<path d="M2632 1568 c-21 -21 -13 -48 18 -66 34 -19 40 -42 11 -42 -11 0 -21
6 -24 13 -2 6 -8 9 -12 5 -15 -14 5 -38 33 -38 60 0 70 50 16 82 -25 15 -32
24 -24 32 7 7 16 7 30 -2 16 -10 20 -10 20 2 0 25 -47 35 -68 14z"/>
<path d="M2895 1556 c-28 -28 -31 -46 -14 -79 14 -26 28 -37 51 -37 19 0 48
26 48 43 0 8 -4 7 -12 -1 -20 -20 -48 -14 -60 12 -20 45 19 87 47 50 16 -23
34 -10 19 14 -17 27 -51 26 -79 -2z"/>
<path d="M3022 1568 c-21 -21 -13 -48 18 -66 16 -9 30 -23 30 -29 0 -16 -32
-17 -48 -1 -9 9 -12 7 -12 -10 0 -18 6 -22 29 -22 31 0 61 22 61 45 0 7 -16
23 -35 35 -19 12 -35 26 -35 31 0 16 32 10 46 -8 12 -17 13 -17 14 3 0 14 -8
24 -22 28 -31 8 -32 8 -46 -6z"/>
<path d="M230 1560 c0 -5 5 -10 11 -10 5 0 7 5 4 10 -3 6 -8 10 -11 10 -2 0
-4 -4 -4 -10z"/>
<path d="M384 1549 c-7 -11 22 -47 30 -38 8 7 -5 49 -15 49 -4 0 -11 -5 -15
-11z"/>
<path d="M744 1535 c-9 -35 1 -42 26 -20 15 14 17 21 9 32 -17 20 -28 16 -35
-12z"/>
<path d="M910 1550 c0 -5 5 -10 10 -10 6 0 10 5 10 10 0 6 -4 10 -10 10 -5 0
-10 -4 -10 -10z"/>
<path d="M267 1526 c-6 -15 1 -26 15 -26 11 0 10 27 -1 34 -5 3 -11 0 -14 -8z"/>
<path d="M855 1520 c-10 -16 16 -43 28 -31 11 11 2 41 -12 41 -5 0 -13 -5 -16
-10z"/>
<path d="M2527 1524 c-16 -16 -5 -24 34 -24 28 0 39 4 37 13 -5 13 -60 22 -71
11z"/>
<path d="M517 1496 c-35 -13 -30 -30 11 -34 26 -3 32 0 32 17 0 26 -9 30 -43
17z"/>
<path d="M590 1485 c0 -22 4 -25 35 -25 43 0 45 14 5 35 -38 20 -40 19 -40
-10z"/>
<path d="M305 1479 c-10 -15 1 -23 20 -15 9 3 13 10 10 16 -8 13 -22 13 -30
-1z"/>
<path d="M820 1466 c0 -9 7 -16 16 -16 17 0 14 22 -4 28 -7 2 -12 -3 -12 -12z"/>
<path d="M405 1450 c-9 -15 4 -30 26 -30 23 0 26 25 3 34 -21 8 -22 8 -29 -4z"/>
<path d="M706 1435 c-3 -9 1 -18 10 -22 19 -7 39 11 30 26 -10 16 -33 13 -40
-4z"/>
<path d="M512 1383 c2 -10 13 -19 26 -21 17 -3 22 2 22 17 0 16 -6 21 -26 21
-19 0 -25 -5 -22 -17z"/>
<path d="M597 1393 c-15 -15 -6 -33 17 -33 22 0 44 16 35 24 -10 9 -46 15 -52
9z"/>
<path d="M460 1379 c0 -5 5 -7 10 -4 6 3 10 8 10 11 0 2 -4 4 -10 4 -5 0 -10
-5 -10 -11z"/>
</g>
</svg>
