<?xml version="1.0" standalone="no"?>
<!DOCTYPE svg PUBLIC "-//W3C//DTD SVG 20010904//EN"
 "http://www.w3.org/TR/2001/REC-SVG-20010904/DTD/svg10.dtd">
<svg version="1.0" xmlns="http://www.w3.org/2000/svg"
 width="83.000000pt" height="83.000000pt" viewBox="0 0 83.000000 83.000000"
 preserveAspectRatio="xMidYMid meet">

<g transform="translate(0.000000,83.000000) scale(0.100000,-0.100000)"
fill="#000000" stroke="none">
<path d="M390 710 c0 -5 5 -10 10 -10 6 0 10 5 10 10 0 6 -4 10 -10 10 -5 0
-10 -4 -10 -10z"/>
<path d="M430 706 c0 -9 7 -16 16 -16 17 0 14 22 -4 28 -7 2 -12 -3 -12 -12z"/>
<path d="M310 670 c0 -5 7 -10 15 -10 8 0 15 5 15 10 0 6 -7 10 -15 10 -8 0
-15 -4 -15 -10z"/>
<path d="M512 669 c2 -7 10 -15 17 -17 8 -3 12 1 9 9 -2 7 -10 15 -17 17 -8 3
-12 -1 -9 -9z"/>
<path d="M225 649 c-10 -15 1 -23 20 -15 9 3 13 10 10 16 -8 13 -22 13 -30 -1z"/>
<path d="M386 641 c-4 -7 -5 -15 -2 -18 9 -9 19 4 14 18 -4 11 -6 11 -12 0z"/>
<path d="M604 639 c-7 -12 15 -41 27 -33 14 8 11 31 -6 37 -8 4 -17 2 -21 -4z"/>
<path d="M430 620 c0 -23 1 -24 35 -8 34 15 32 28 -5 28 -23 0 -30 -4 -30 -20z"/>
<path d="M180 604 c0 -17 22 -14 28 4 2 7 -3 12 -12 12 -9 0 -16 -7 -16 -16z"/>
<path d="M330 594 c-14 -37 -13 -44 11 -44 28 0 59 18 59 34 0 11 -39 36 -56
36 -2 0 -9 -12 -14 -26z"/>
<path d="M530 606 c0 -28 20 -66 34 -66 9 0 20 9 26 19 8 16 5 23 -19 40 -34
25 -41 26 -41 7z"/>
<path d="M285 600 c-8 -13 4 -32 16 -25 12 8 12 35 0 35 -6 0 -13 -4 -16 -10z"/>
<path d="M466 585 c-3 -9 4 -21 20 -31 30 -20 39 -14 30 21 -7 28 -40 35 -50
10z"/>
<path d="M652 583 c5 -25 28 -28 28 -4 0 12 -6 21 -16 21 -9 0 -14 -7 -12 -17z"/>
<path d="M237 563 c-13 -12 -7 -23 13 -23 11 0 20 7 20 15 0 15 -21 21 -33 8z"/>
<path d="M601 541 c-8 -5 -10 -14 -7 -20 8 -13 46 -15 46 -2 0 16 -25 30 -39
22z"/>
<path d="M150 526 c0 -9 7 -16 16 -16 17 0 14 22 -4 28 -7 2 -12 -3 -12 -12z"/>
<path d="M367 523 c-13 -12 -7 -32 13 -43 18 -10 20 -8 20 20 0 28 -17 40 -33
23z"/>
<path d="M424 516 c-9 -24 0 -89 14 -94 7 -2 29 13 48 32 35 35 36 37 19 56
-21 23 -73 27 -81 6z"/>
<path d="M233 510 c-20 -8 -21 -12 -12 -40 6 -16 16 -33 22 -37 15 -9 37 26
37 59 0 29 -10 33 -47 18z"/>
<path d="M682 496 c1 -10 8 -17 13 -17 15 1 12 24 -3 29 -9 3 -13 -2 -10 -12z"/>
<path d="M560 492 c0 -18 34 -72 46 -72 16 0 39 49 28 60 -15 15 -74 24 -74
12z"/>
<path d="M304 464 c-15 -22 -15 -27 -3 -35 20 -12 76 -11 84 2 8 12 -33 59
-52 59 -7 0 -20 -12 -29 -26z"/>
<path d="M186 463 c-12 -12 -6 -33 9 -33 8 0 15 6 15 14 0 17 -14 28 -24 19z"/>
<path d="M505 450 c-21 -23 -18 -28 16 -32 19 -2 24 1 24 21 0 32 -17 37 -40
11z"/>
<path d="M107 446 c-7 -18 1 -26 18 -19 8 2 11 11 8 19 -7 18 -19 18 -26 0z"/>
<path d="M645 429 c-10 -15 3 -25 16 -12 7 7 7 13 1 17 -6 3 -14 1 -17 -5z"/>
<path d="M720 416 c0 -9 5 -16 10 -16 6 0 10 4 10 9 0 6 -4 13 -10 16 -5 3
-10 -1 -10 -9z"/>
<path d="M187 403 c-11 -10 -8 -73 2 -73 13 0 42 60 35 71 -6 11 -28 12 -37 2z"/>
<path d="M294 396 c-9 -24 3 -63 23 -70 18 -7 59 18 77 47 14 21 8 26 -47 33
-38 5 -48 4 -53 -10z"/>
<path d="M102 383 c2 -10 10 -18 18 -18 8 0 16 8 18 18 2 12 -3 17 -18 17 -15
0 -20 -5 -18 -17z"/>
<path d="M470 387 c0 -7 14 -26 30 -42 35 -33 54 -25 48 21 -3 26 -8 29 -40
32 -27 2 -38 -1 -38 -11z"/>
<path d="M625 368 c11 -35 24 -45 35 -28 15 23 7 45 -19 48 -20 3 -22 1 -16
-20z"/>
<path d="M424 367 c-3 -8 -4 -32 -2 -53 3 -33 7 -39 28 -42 14 -2 34 4 45 12
20 14 19 15 -11 52 -35 43 -52 52 -60 31z"/>
<path d="M710 370 c0 -5 7 -10 15 -10 8 0 15 5 15 10 0 6 -7 10 -15 10 -8 0
-15 -4 -15 -10z"/>
<path d="M230 350 c-15 -28 -6 -50 20 -50 18 0 21 5 18 32 -4 38 -22 47 -38
18z"/>
<path d="M580 341 c-16 -31 -12 -41 15 -41 25 0 31 13 19 44 -8 21 -21 20 -34
-3z"/>
<path d="M360 315 c-10 -12 -10 -18 0 -30 21 -25 40 -18 40 15 0 33 -19 40
-40 15z"/>
<path d="M150 290 c0 -11 5 -20 10 -20 6 0 10 9 10 20 0 11 -4 20 -10 20 -5 0
-10 -9 -10 -20z"/>
<path d="M676 303 c-9 -9 -7 -33 3 -33 12 0 22 28 12 34 -5 3 -11 3 -15 -1z"/>
<path d="M220 276 c0 -24 26 -38 39 -22 12 14 9 18 -21 29 -12 4 -18 1 -18 -7z"/>
<path d="M598 283 c-22 -6 -23 -32 -3 -40 9 -3 22 2 30 13 25 33 18 39 -27 27z"/>
<path d="M312 234 c4 -34 32 -43 63 -20 25 18 13 33 -34 42 -31 7 -32 6 -29
-22z"/>
<path d="M481 247 c-31 -16 -30 -29 3 -47 24 -13 28 -13 36 0 14 22 12 60 -2
60 -7 0 -24 -6 -37 -13z"/>
<path d="M681 234 c0 -11 3 -14 6 -6 3 7 2 16 -1 19 -3 4 -6 -2 -5 -13z"/>
<path d="M267 233 c-11 -10 -8 -20 8 -27 10 -4 15 1 15 14 0 20 -11 26 -23 13z"/>
<path d="M547 218 c-4 -12 -4 -24 -1 -27 8 -9 37 27 30 38 -11 17 -23 13 -29
-11z"/>
<path d="M175 211 c-6 -11 9 -23 19 -14 9 9 7 23 -3 23 -6 0 -12 -4 -16 -9z"/>
<path d="M632 198 c6 -18 28 -21 28 -4 0 9 -7 16 -16 16 -9 0 -14 -5 -12 -12z"/>
<path d="M367 189 c-21 -12 -13 -29 14 -29 12 0 19 7 19 20 0 22 -7 24 -33 9z"/>
<path d="M427 194 c-12 -12 6 -34 29 -34 29 0 31 15 5 30 -23 12 -26 12 -34 4z"/>
<path d="M205 170 c4 -6 11 -8 16 -5 14 9 11 15 -7 15 -8 0 -12 -5 -9 -10z"/>
<path d="M610 160 c0 -5 5 -10 10 -10 6 0 10 5 10 10 0 6 -4 10 -10 10 -5 0
-10 -4 -10 -10z"/>
<path d="M285 150 c-3 -6 1 -13 10 -16 19 -8 30 0 20 15 -8 14 -22 14 -30 1z"/>
<path d="M520 135 c0 -8 7 -15 15 -15 8 0 15 7 15 15 0 8 -7 15 -15 15 -8 0
-15 -7 -15 -15z"/>
<path d="M370 95 c0 -8 9 -15 20 -15 11 0 20 7 20 15 0 8 -9 15 -20 15 -11 0
-20 -7 -20 -15z"/>
<path d="M430 95 c0 -8 9 -15 20 -15 11 0 20 7 20 15 0 8 -9 15 -20 15 -11 0
-20 -7 -20 -15z"/>
</g>
</svg>
