<?xml version="1.0" standalone="no"?>
<!DOCTYPE svg PUBLIC "-//W3C//DTD SVG 20010904//EN"
 "http://www.w3.org/TR/2001/REC-SVG-20010904/DTD/svg10.dtd">
<svg version="1.0" xmlns="http://www.w3.org/2000/svg"
 width="280.000000pt" height="360.000000pt" viewBox="0 0 280.000000 360.000000"
 preserveAspectRatio="xMidYMid meet">

<g transform="translate(0.000000,360.000000) scale(0.100000,-0.100000)"
fill="#000000" stroke="none">
<path d="M1310 3255 c0 -8 -7 -15 -15 -15 -9 0 -15 -9 -15 -25 0 -22 4 -25 40
-25 36 0 40 3 40 25 0 16 -6 25 -15 25 -8 0 -15 7 -15 15 0 8 -4 15 -10 15 -5
0 -10 -7 -10 -15z"/>
<path d="M1450 3245 c0 -16 -6 -25 -15 -25 -10 0 -15 -10 -15 -30 0 -30 1 -30
55 -30 54 0 55 0 55 30 0 17 -5 30 -11 30 -14 0 -39 25 -39 39 0 6 -7 11 -15
11 -9 0 -15 -9 -15 -25z"/>
<path d="M1620 3215 c0 -20 5 -25 25 -25 20 0 25 5 25 25 0 20 -5 25 -25 25
-20 0 -25 -5 -25 -25z"/>
<path d="M850 3115 c0 -8 7 -15 15 -15 8 0 15 7 15 15 0 8 -7 15 -15 15 -8 0
-15 -7 -15 -15z"/>
<path d="M990 3090 l0 -40 45 0 c25 0 45 5 45 10 0 6 7 10 15 10 10 0 15 10
15 30 l0 30 -60 0 -60 0 0 -40z"/>
<path d="M1700 3075 c0 -21 5 -25 30 -25 20 0 30 -5 30 -15 0 -11 11 -15 40
-15 36 0 40 3 40 25 0 16 -6 25 -15 25 -8 0 -15 7 -15 15 0 12 -13 15 -55 15
-52 0 -55 -1 -55 -25z"/>
<path d="M1930 3085 c0 -8 7 -15 15 -15 8 0 15 -4 15 -10 0 -5 11 -10 25 -10
20 0 25 5 25 25 0 23 -4 25 -40 25 -29 0 -40 -4 -40 -15z"/>
<path d="M680 3035 c0 -8 -4 -15 -10 -15 -5 0 -10 -7 -10 -15 0 -8 5 -15 10
-15 6 0 10 -7 10 -15 0 -8 7 -15 15 -15 8 0 15 -7 15 -15 0 -8 7 -15 15 -15 8
0 15 7 15 15 0 8 7 15 15 15 8 0 15 7 15 15 0 8 7 15 15 15 10 0 15 10 15 30
l0 30 -60 0 c-47 0 -60 -3 -60 -15z"/>
<path d="M1220 2975 c0 -8 7 -15 15 -15 8 0 15 -7 15 -15 0 -10 10 -15 30 -15
17 0 30 -4 30 -10 0 -5 5 -10 10 -10 6 0 10 18 10 40 l0 40 -55 0 c-42 0 -55
-3 -55 -15z"/>
<path d="M1420 2920 l0 -70 40 0 c29 0 40 4 40 15 0 10 10 15 30 15 20 0 30 5
30 15 0 9 10 15 26 15 26 0 54 20 54 39 0 6 -11 11 -25 11 -16 0 -25 6 -25 15
0 12 -16 15 -85 15 l-85 0 0 -70z"/>
<path d="M2040 2950 c0 -29 4 -40 15 -40 8 0 15 -7 15 -15 0 -8 7 -15 15 -15
8 0 15 -7 15 -15 0 -9 9 -15 25 -15 16 0 25 6 25 15 0 8 7 15 15 15 8 0 15 7
15 15 0 8 7 15 15 15 9 0 15 9 15 25 0 21 -5 25 -30 25 -20 0 -30 5 -30 15 0
12 -13 15 -55 15 l-55 0 0 -40z"/>
<path d="M570 2920 c0 -5 -7 -10 -15 -10 -8 0 -15 -7 -15 -15 0 -8 -7 -15 -15
-15 -10 0 -15 -10 -15 -30 0 -29 2 -30 45 -30 33 0 45 4 45 15 0 8 7 15 15 15
10 0 15 10 15 30 0 20 -5 30 -15 30 -8 0 -15 5 -15 10 0 6 -7 10 -15 10 -8 0
-15 -4 -15 -10z"/>
<path d="M1110 2895 c0 -8 -7 -15 -15 -15 -11 0 -15 -12 -15 -45 0 -33 -4 -45
-15 -45 -9 0 -15 -9 -15 -25 0 -16 -6 -25 -15 -25 -10 0 -15 -10 -15 -30 l0
-30 100 0 c82 0 100 3 100 15 0 10 10 15 30 15 20 0 30 5 30 15 0 8 5 15 11
15 14 0 39 25 39 39 0 6 -4 11 -10 11 -5 0 -10 7 -10 15 0 10 -10 15 -30 15
-20 0 -30 5 -30 15 0 8 -7 15 -15 15 -8 0 -15 7 -15 15 0 10 -10 15 -30 15
-20 0 -30 5 -30 15 0 9 -9 15 -25 15 -16 0 -25 -6 -25 -15z"/>
<path d="M1790 2850 c0 -33 4 -60 10 -60 6 0 10 -11 10 -25 0 -16 6 -25 15
-25 12 0 15 -13 15 -60 0 -47 3 -60 15 -60 8 0 15 -7 15 -15 0 -10 10 -15 30
-15 27 0 30 3 30 30 0 20 5 30 15 30 8 0 15 7 15 15 0 8 5 15 10 15 6 0 10 7
10 15 0 8 7 15 15 15 9 0 15 9 15 25 0 16 -6 25 -15 25 -8 0 -15 7 -15 15 0 8
-4 15 -10 15 -5 0 -10 7 -10 15 0 8 -7 15 -15 15 -8 0 -15 7 -15 15 0 10 -10
15 -30 15 -20 0 -30 5 -30 15 0 8 -7 15 -15 15 -8 0 -15 7 -15 15 0 9 -9 15
-25 15 -24 0 -25 -3 -25 -60z"/>
<path d="M940 2865 c0 -8 -7 -15 -15 -15 -8 0 -15 -7 -15 -15 0 -8 -7 -15 -15
-15 -10 0 -15 -10 -15 -30 0 -20 5 -30 15 -30 8 0 15 -4 15 -10 0 -5 14 -10
30 -10 28 0 30 2 30 40 0 22 5 40 10 40 6 0 10 14 10 30 0 25 -4 30 -25 30
-16 0 -25 -6 -25 -15z"/>
<path d="M1620 2835 c0 -10 -10 -15 -30 -15 -20 0 -30 -5 -30 -15 0 -8 -7 -15
-15 -15 -9 0 -15 -9 -15 -25 0 -21 5 -25 30 -25 20 0 30 -5 30 -15 0 -8 7 -15
15 -15 8 0 15 -7 15 -15 0 -8 5 -15 10 -15 6 0 10 -7 10 -15 0 -12 13 -15 60
-15 l60 0 0 30 c0 20 -5 30 -15 30 -11 0 -15 11 -15 40 0 29 -4 40 -15 40 -10
0 -15 10 -15 30 0 28 -2 30 -40 30 -29 0 -40 -4 -40 -15z"/>
<path d="M2240 2835 c0 -8 -7 -15 -15 -15 -10 0 -15 -10 -15 -30 0 -20 5 -30
15 -30 8 0 15 -4 15 -10 0 -5 7 -10 15 -10 8 0 15 -7 15 -15 0 -9 9 -15 25
-15 16 0 25 6 25 15 0 8 7 15 15 15 9 0 15 9 15 25 0 16 -6 25 -15 25 -8 0
-15 7 -15 15 0 8 -4 15 -10 15 -5 0 -10 7 -10 15 0 10 -10 15 -30 15 -20 0
-30 -5 -30 -15z"/>
<path d="M770 2725 c0 -8 -7 -15 -15 -15 -8 0 -15 -7 -15 -15 0 -8 -7 -15 -15
-15 -10 0 -15 -10 -15 -30 0 -20 -5 -30 -15 -30 -8 0 -15 -7 -15 -15 0 -10 10
-15 30 -15 20 0 30 5 30 15 0 12 13 15 55 15 l55 0 0 45 c0 33 -4 45 -15 45
-8 0 -15 7 -15 15 0 9 -9 15 -25 15 -16 0 -25 -6 -25 -15z"/>
<path d="M1420 2695 c0 -8 7 -15 15 -15 8 0 15 7 15 15 0 8 -7 15 -15 15 -8 0
-15 -7 -15 -15z"/>
<path d="M2040 2635 c0 -8 -7 -15 -15 -15 -11 0 -15 -11 -15 -40 l0 -40 45 0
c33 0 45 -4 45 -15 0 -11 11 -15 40 -15 38 0 40 2 40 30 0 17 -5 30 -11 30
-19 0 -39 28 -39 54 0 24 -3 26 -45 26 -33 0 -45 -4 -45 -15z"/>
<path d="M2380 2635 c0 -10 10 -15 30 -15 20 0 30 5 30 15 0 10 -10 15 -30 15
-20 0 -30 -5 -30 -15z"/>
<path d="M430 2605 c0 -8 -7 -15 -15 -15 -9 0 -15 -9 -15 -25 0 -16 6 -25 15
-25 8 0 15 -7 15 -15 0 -8 7 -15 15 -15 8 0 15 7 15 15 0 9 9 15 25 15 20 0
25 5 25 25 0 14 -4 25 -10 25 -5 0 -10 7 -10 15 0 10 -10 15 -30 15 -20 0 -30
-5 -30 -15z"/>
<path d="M1220 2580 c0 -5 -7 -10 -15 -10 -8 0 -15 -7 -15 -15 0 -8 -7 -15
-15 -15 -10 0 -15 -10 -15 -30 0 -20 5 -30 15 -30 8 0 15 -7 15 -15 0 -8 7
-15 15 -15 8 0 15 -7 15 -15 0 -8 7 -15 15 -15 8 0 15 -4 15 -10 0 -5 7 -10
15 -10 8 0 15 -7 15 -15 0 -8 7 -15 15 -15 12 0 15 14 15 70 0 40 4 70 10 70
15 0 12 49 -4 66 -16 16 -96 19 -96 4z"/>
<path d="M1420 2580 c0 -5 -7 -10 -15 -10 -13 0 -15 -24 -15 -160 0 -136 2
-160 15 -160 8 0 15 -4 15 -10 0 -5 7 -10 15 -10 8 0 15 -7 15 -15 0 -9 9 -15
25 -15 16 0 25 6 25 15 0 8 7 15 15 15 8 0 15 5 15 10 0 6 7 10 15 10 8 0 15
7 15 15 0 8 7 15 15 15 8 0 15 7 15 15 0 8 7 15 15 15 8 0 15 7 15 15 0 8 5
15 10 15 6 0 10 7 10 15 0 8 7 15 15 15 8 0 15 7 15 15 0 8 7 15 15 15 8 0 15
5 15 10 0 6 7 10 15 10 10 0 15 10 15 30 0 20 -5 30 -15 30 -8 0 -15 7 -15 15
0 8 -7 15 -15 15 -8 0 -15 7 -15 15 0 8 -7 15 -15 15 -8 0 -15 7 -15 15 0 9
-9 15 -25 15 -14 0 -25 5 -25 10 0 6 -35 10 -85 10 -50 0 -85 -4 -85 -10z"/>
<path d="M850 2555 c0 -12 -13 -15 -55 -15 -42 0 -55 -3 -55 -15 0 -11 -11
-15 -40 -15 -29 0 -40 -4 -40 -15 0 -8 -7 -15 -15 -15 -8 0 -15 -7 -15 -15 0
-8 7 -15 15 -15 9 0 15 -9 15 -25 0 -14 5 -25 10 -25 6 0 10 -13 10 -30 0 -20
5 -30 15 -30 10 0 15 -10 15 -30 0 -20 5 -30 15 -30 9 0 15 -9 15 -25 0 -21 5
-25 30 -25 25 0 30 4 30 25 0 14 5 25 10 25 6 0 10 7 10 15 0 8 7 15 15 15 12
0 15 13 15 55 0 42 3 55 15 55 12 0 15 15 15 75 0 60 -3 75 -15 75 -8 0 -15
-7 -15 -15z"/>
<path d="M990 2525 c0 -8 7 -15 15 -15 8 0 15 7 15 15 0 8 -7 15 -15 15 -8 0
-15 -7 -15 -15z"/>
<path d="M2320 2465 c0 -33 4 -45 15 -45 8 0 15 -4 15 -10 0 -5 20 -10 45 -10
l45 0 0 40 c0 29 -4 40 -15 40 -8 0 -15 7 -15 15 0 11 -12 15 -45 15 l-45 0 0
-45z"/>
<path d="M290 2465 c0 -8 7 -15 15 -15 8 0 15 7 15 15 0 8 -7 15 -15 15 -8 0
-15 -7 -15 -15z"/>
<path d="M1900 2440 c0 -29 4 -40 15 -40 10 0 15 -10 15 -30 0 -20 5 -30 15
-30 8 0 15 -7 15 -15 0 -8 5 -15 10 -15 6 0 10 -13 10 -30 0 -20 5 -30 15 -30
9 0 15 -9 15 -25 0 -23 4 -25 45 -25 41 0 45 2 45 25 0 16 6 25 15 25 8 0 15
7 15 15 0 8 5 15 10 15 6 0 10 14 10 30 0 20 5 30 15 30 10 0 15 10 15 30 0
25 -4 30 -25 30 -14 0 -25 5 -25 10 0 6 -13 10 -30 10 -20 0 -30 5 -30 15 0
10 -10 15 -30 15 -20 0 -30 5 -30 15 0 12 -13 15 -55 15 l-55 0 0 -40z"/>
<path d="M1050 2435 c0 -8 -7 -15 -15 -15 -8 0 -15 -4 -15 -10 0 -5 -7 -10
-15 -10 -10 0 -15 -10 -15 -30 0 -16 -4 -30 -10 -30 -5 0 -10 -7 -10 -15 0 -8
-7 -15 -15 -15 -11 0 -15 -11 -15 -40 l0 -40 170 0 170 0 0 25 c0 16 -6 25
-15 25 -8 0 -15 7 -15 15 0 8 -7 15 -15 15 -8 0 -15 7 -15 15 0 8 -7 15 -15
15 -8 0 -15 7 -15 15 0 8 -7 15 -15 15 -8 0 -15 5 -15 11 0 14 -25 39 -39 39
-6 0 -11 7 -11 15 0 10 -10 15 -30 15 -20 0 -30 -5 -30 -15z"/>
<path d="M430 2385 c0 -8 7 -15 15 -15 8 0 15 7 15 15 0 8 -7 15 -15 15 -8 0
-15 -7 -15 -15z"/>
<path d="M540 2325 c0 -33 -4 -45 -15 -45 -9 0 -15 -9 -15 -25 0 -24 3 -25 60
-25 l60 0 0 40 c0 29 -4 40 -15 40 -10 0 -15 10 -15 30 0 27 -3 30 -30 30 -29
0 -30 -2 -30 -45z"/>
<path d="M1760 2355 c0 -8 -7 -15 -15 -15 -8 0 -15 -7 -15 -15 0 -8 -7 -15
-15 -15 -8 0 -15 -7 -15 -15 0 -8 -7 -15 -15 -15 -8 0 -15 -7 -15 -15 0 -8 -7
-15 -15 -15 -9 0 -15 -9 -15 -25 l0 -25 115 0 c96 0 115 3 115 15 0 8 -7 15
-15 15 -12 0 -15 14 -15 70 l0 70 -40 0 c-29 0 -40 -4 -40 -15z"/>
<path d="M260 2295 c0 -33 -4 -45 -15 -45 -8 0 -15 -4 -15 -10 0 -5 25 -10 55
-10 l55 0 0 55 0 55 -40 0 -40 0 0 -45z"/>
<path d="M2210 2240 c0 -5 -7 -10 -15 -10 -10 0 -15 -10 -15 -30 0 -29 2 -30
45 -30 l45 0 0 40 c0 38 -2 40 -30 40 -16 0 -30 -4 -30 -10z"/>
<path d="M2490 2215 c0 -8 -4 -15 -10 -15 -5 0 -10 -13 -10 -30 0 -28 2 -30
40 -30 38 0 40 2 40 30 0 20 -5 30 -15 30 -8 0 -15 7 -15 15 0 8 -7 15 -15 15
-8 0 -15 -7 -15 -15z"/>
<path d="M260 2125 c0 -8 -7 -15 -15 -15 -11 0 -15 -11 -15 -40 0 -29 4 -40
15 -40 8 0 15 -7 15 -15 0 -8 7 -15 15 -15 8 0 15 -7 15 -15 0 -9 9 -15 25
-15 23 0 25 4 25 45 0 33 4 45 15 45 9 0 15 9 15 25 0 16 -6 25 -15 25 -8 0
-15 7 -15 15 0 11 -11 15 -40 15 -29 0 -40 -4 -40 -15z"/>
<path d="M510 2030 c0 -91 3 -110 15 -110 10 0 15 -10 15 -30 0 -20 5 -30 15
-30 8 0 15 7 15 15 0 8 7 15 15 15 9 0 15 9 15 25 0 16 6 25 15 25 10 0 15 10
15 30 0 20 5 30 15 30 9 0 15 10 15 26 0 26 20 54 39 54 6 0 11 14 11 30 l0
30 -100 0 -100 0 0 -110z"/>
<path d="M940 2125 c0 -8 -7 -15 -15 -15 -12 0 -15 -14 -15 -70 0 -56 3 -70
15 -70 8 0 15 -7 15 -15 0 -8 7 -15 15 -15 9 0 15 -9 15 -25 0 -14 5 -25 10
-25 6 0 10 -7 10 -15 0 -8 7 -15 15 -15 8 0 15 -7 15 -15 0 -10 10 -15 30 -15
20 0 30 5 30 15 0 10 10 15 30 15 20 0 30 5 30 15 0 8 5 15 10 15 6 0 10 7 10
15 0 8 7 15 15 15 8 0 15 5 15 10 0 6 7 10 15 10 8 0 15 7 15 15 0 8 7 15 15
15 8 0 15 7 15 15 0 8 7 15 15 15 8 0 15 7 15 15 0 8 7 15 15 15 11 0 15 11
15 40 0 29 -4 40 -15 40 -8 0 -15 7 -15 15 0 13 -26 15 -170 15 -144 0 -170
-2 -170 -15z"/>
<path d="M1560 2085 c0 -16 6 -25 15 -25 8 0 15 -7 15 -15 0 -8 7 -15 15 -15
8 0 15 -7 15 -15 0 -8 5 -15 10 -15 6 0 10 -7 10 -15 0 -8 7 -15 15 -15 8 0
15 -7 15 -15 0 -8 7 -15 15 -15 8 0 15 -4 15 -10 0 -5 7 -10 15 -10 8 0 15 -7
15 -15 0 -8 7 -15 15 -15 10 0 15 -10 15 -30 0 -25 4 -30 25 -30 16 0 25 6 25
15 0 8 7 15 15 15 10 0 15 10 15 30 0 20 5 30 15 30 12 0 15 16 15 80 0 64 -3
80 -15 80 -8 0 -15 7 -15 15 0 13 -22 15 -140 15 l-140 0 0 -25z"/>
<path d="M1960 2070 c0 -5 5 -10 10 -10 6 0 10 5 10 10 0 6 -4 10 -10 10 -5 0
-10 -4 -10 -10z"/>
<path d="M2130 2040 c0 -22 5 -40 10 -40 6 0 10 -13 10 -30 0 -20 5 -30 15
-30 9 0 15 -9 15 -25 0 -16 6 -25 15 -25 8 0 15 -7 15 -15 0 -8 7 -15 15 -15
8 0 15 7 15 15 0 8 7 15 15 15 12 0 15 16 15 85 0 69 -3 85 -15 85 -8 0 -15 5
-15 10 0 6 -25 10 -55 10 l-55 0 0 -40z"/>
<path d="M1450 2045 c0 -8 -7 -15 -15 -15 -8 0 -15 -7 -15 -15 0 -8 -7 -15
-15 -15 -13 0 -15 -24 -15 -155 0 -131 2 -155 15 -155 8 0 15 -7 15 -15 0 -12
16 -15 85 -15 69 0 85 3 85 15 0 9 9 15 25 15 16 0 25 6 25 15 0 8 7 15 15 15
8 0 15 7 15 15 0 8 7 15 15 15 9 0 15 9 15 25 0 16 -6 25 -15 25 -8 0 -15 7
-15 15 0 8 -7 15 -15 15 -10 0 -15 10 -15 30 0 17 -4 30 -10 30 -5 0 -10 7
-10 15 0 8 -7 15 -15 15 -8 0 -15 5 -15 10 0 6 -7 10 -15 10 -8 0 -15 7 -15
15 0 8 -7 15 -15 15 -8 0 -15 7 -15 15 0 8 -7 15 -15 15 -8 0 -15 7 -15 15 0
8 -4 15 -10 15 -5 0 -10 7 -10 15 0 8 -7 15 -15 15 -8 0 -15 -7 -15 -15z"/>
<path d="M2440 2015 l0 -45 40 0 c29 0 40 4 40 15 0 8 7 15 15 15 10 0 15 10
15 30 0 30 -1 30 -55 30 l-55 0 0 -45z"/>
<path d="M770 2015 c0 -8 -7 -15 -15 -15 -8 0 -15 -7 -15 -15 0 -8 -7 -15 -15
-15 -9 0 -15 -9 -15 -25 0 -16 -6 -25 -15 -25 -10 0 -15 -10 -15 -30 0 -16 -4
-30 -10 -30 -5 0 -10 -13 -10 -30 0 -25 4 -30 25 -30 16 0 25 -6 25 -15 0 -10
10 -15 30 -15 17 0 30 -4 30 -10 0 -5 18 -10 40 -10 l40 0 0 85 c0 69 -3 85
-15 85 -9 0 -15 9 -15 25 0 14 -4 25 -10 25 -5 0 -10 14 -10 30 0 20 -5 30
-15 30 -8 0 -15 -7 -15 -15z"/>
<path d="M2010 1955 c0 -8 -7 -15 -15 -15 -9 0 -15 -9 -15 -25 0 -14 -4 -25
-10 -25 -5 0 -10 -7 -10 -15 0 -8 -7 -15 -15 -15 -12 0 -15 -13 -15 -55 l0
-55 40 0 c22 0 40 5 40 10 0 6 20 10 45 10 33 0 45 4 45 15 0 8 7 15 15 15 10
0 15 10 15 30 0 20 -5 30 -15 30 -11 0 -15 11 -15 40 0 29 -4 40 -15 40 -8 0
-15 7 -15 15 0 10 -10 15 -30 15 -20 0 -30 -5 -30 -15z"/>
<path d="M260 1875 c0 -8 7 -15 15 -15 10 0 15 -10 15 -30 0 -20 5 -30 15 -30
11 0 15 12 15 45 0 43 -1 45 -30 45 -20 0 -30 -5 -30 -15z"/>
<path d="M1250 1875 c0 -8 -7 -15 -15 -15 -8 0 -15 -7 -15 -15 0 -8 -7 -15
-15 -15 -8 0 -15 -7 -15 -15 0 -8 -7 -15 -15 -15 -8 0 -15 -7 -15 -15 0 -8 -4
-15 -10 -15 -5 0 -10 -11 -10 -25 0 -14 5 -25 10 -25 6 0 10 -7 10 -15 0 -10
10 -15 30 -15 20 0 30 -5 30 -15 0 -11 12 -15 45 -15 l45 0 0 115 0 115 -30 0
c-20 0 -30 -5 -30 -15z"/>
<path d="M2470 1830 c0 -16 5 -30 10 -30 6 0 10 7 10 15 0 8 7 15 15 15 8 0
15 7 15 15 0 9 -9 15 -25 15 -21 0 -25 -5 -25 -30z"/>
<path d="M400 1745 c0 -42 3 -55 15 -55 8 0 15 -7 15 -15 0 -10 10 -15 30 -15
30 0 30 1 30 55 0 42 -3 55 -15 55 -8 0 -15 7 -15 15 0 10 -10 15 -30 15 -30
0 -30 -1 -30 -55z"/>
<path d="M2320 1775 c0 -14 -4 -25 -10 -25 -5 0 -10 -13 -10 -30 0 -20 -5 -30
-15 -30 -8 0 -15 -7 -15 -15 0 -11 11 -15 40 -15 29 0 40 4 40 15 0 8 7 15 15
15 12 0 15 13 15 55 0 54 0 55 -30 55 -25 0 -30 -4 -30 -25z"/>
<path d="M630 1705 c0 -8 7 -15 15 -15 10 0 15 -10 15 -30 0 -16 5 -30 10 -30
6 0 10 -7 10 -15 0 -8 7 -15 15 -15 8 0 15 -4 15 -10 0 -5 7 -10 15 -10 8 0
15 -7 15 -15 0 -8 7 -15 15 -15 8 0 15 7 15 15 0 8 5 15 11 15 14 0 39 25 39
39 0 6 7 11 15 11 8 0 15 7 15 15 0 9 -9 15 -25 15 -16 0 -25 6 -25 15 0 12
-13 15 -60 15 -47 0 -60 3 -60 15 0 9 -9 15 -25 15 -16 0 -25 -6 -25 -15z"/>
<path d="M2100 1705 c0 -12 -13 -15 -60 -15 -47 0 -60 -3 -60 -15 0 -8 -4 -15
-10 -15 -5 0 -10 -12 -10 -26 0 -26 20 -54 39 -54 6 0 11 -7 11 -15 0 -10 10
-15 30 -15 20 0 30 5 30 15 0 8 7 15 15 15 8 0 15 5 15 10 0 6 7 10 15 10 8 0
15 7 15 15 0 8 5 15 10 15 6 0 10 7 10 15 0 8 7 15 15 15 10 0 15 10 15 30 0
28 -2 30 -40 30 -29 0 -40 -4 -40 -15z"/>
<path d="M990 1560 c0 -56 3 -70 15 -70 11 0 15 -11 15 -40 0 -29 4 -40 15
-40 8 0 15 -7 15 -15 0 -8 7 -15 15 -15 8 0 15 7 15 15 0 10 10 15 30 15 17 0
30 5 30 10 0 6 18 10 40 10 29 0 40 4 40 15 0 10 10 15 30 15 27 0 30 3 30 30
0 20 -5 30 -15 30 -8 0 -15 7 -15 15 0 8 -7 15 -15 15 -8 0 -15 7 -15 15 0 10
-10 15 -30 15 -16 0 -30 5 -30 10 0 6 -30 10 -70 10 -56 0 -70 3 -70 15 0 8
-7 15 -15 15 -12 0 -15 -14 -15 -70z"/>
<path d="M1760 1615 c0 -12 -14 -15 -70 -15 -40 0 -70 -4 -70 -10 0 -5 -7 -10
-15 -10 -8 0 -15 -7 -15 -15 0 -10 -10 -15 -30 -15 -20 0 -30 -5 -30 -15 0 -8
-7 -15 -15 -15 -10 0 -15 -10 -15 -30 0 -27 3 -30 30 -30 20 0 30 -5 30 -15 0
-8 7 -15 15 -15 8 0 15 -4 15 -10 0 -5 18 -10 40 -10 29 0 40 -4 40 -15 0 -10
10 -15 30 -15 20 0 30 5 30 15 0 8 7 15 15 15 11 0 15 11 15 40 0 29 4 40 15
40 12 0 15 14 15 70 0 56 -3 70 -15 70 -8 0 -15 -7 -15 -15z"/>
<path d="M400 1550 c0 -27 3 -30 30 -30 20 0 30 5 30 15 0 8 -7 15 -15 15 -8
0 -15 7 -15 15 0 8 -7 15 -15 15 -10 0 -15 -10 -15 -30z"/>
<path d="M850 1535 c0 -8 -7 -15 -15 -15 -10 0 -15 -10 -15 -30 0 -20 5 -30
15 -30 8 0 15 -7 15 -15 0 -8 7 -15 15 -15 8 0 15 -4 15 -10 0 -5 14 -10 30
-10 25 0 30 4 30 25 0 16 -6 25 -15 25 -11 0 -15 12 -15 45 0 43 -1 45 -30 45
-20 0 -30 -5 -30 -15z"/>
<path d="M1870 1520 c0 -20 -5 -30 -15 -30 -12 0 -15 -13 -15 -55 0 -54 0 -55
30 -55 20 0 30 5 30 15 0 8 7 15 15 15 8 0 15 5 15 10 0 6 7 10 15 10 8 0 15
7 15 15 0 8 5 15 10 15 6 0 10 7 10 15 0 8 -4 15 -10 15 -5 0 -10 7 -10 15 0
8 -7 15 -15 15 -8 0 -15 7 -15 15 0 10 -10 15 -30 15 -27 0 -30 -3 -30 -30z"/>
<path d="M2320 1520 c0 -27 3 -30 30 -30 27 0 30 3 30 30 0 27 -3 30 -30 30
-27 0 -30 -3 -30 -30z"/>
<path d="M510 1461 c0 -16 -6 -32 -12 -35 -10 -5 -10 -7 0 -12 6 -3 12 -12 12
-20 0 -9 11 -14 30 -14 28 0 30 2 30 40 0 29 -4 40 -15 40 -8 0 -15 7 -15 15
0 8 -7 15 -15 15 -10 0 -15 -10 -15 -29z"/>
<path d="M2180 1445 c0 -8 -7 -15 -15 -15 -9 0 -15 -9 -15 -25 0 -16 6 -25 15
-25 8 0 15 -7 15 -15 0 -8 7 -15 15 -15 8 0 15 -7 15 -15 0 -8 7 -15 15 -15 8
0 15 7 15 15 0 8 7 15 15 15 11 0 15 11 15 40 0 29 -4 40 -15 40 -8 0 -15 7
-15 15 0 10 -10 15 -30 15 -20 0 -30 -5 -30 -15z"/>
<path d="M1280 1395 c0 -10 -10 -15 -30 -15 -20 0 -30 -5 -30 -15 0 -11 -11
-15 -40 -15 -38 0 -40 -2 -40 -30 0 -16 5 -30 10 -30 6 0 10 -7 10 -15 0 -12
16 -15 85 -15 l85 0 0 60 c0 33 -4 60 -10 60 -5 0 -10 7 -10 15 0 8 -7 15 -15
15 -8 0 -15 -7 -15 -15z"/>
<path d="M1420 1335 l0 -75 100 0 100 0 0 30 c0 20 -5 30 -15 30 -8 0 -15 7
-15 15 0 10 -10 15 -30 15 -20 0 -30 5 -30 15 0 9 -9 15 -25 15 -16 0 -25 6
-25 15 0 10 -10 15 -30 15 l-30 0 0 -75z"/>
<path d="M630 1335 c0 -8 -7 -15 -15 -15 -10 0 -15 -10 -15 -30 0 -28 2 -30
40 -30 29 0 40 4 40 15 0 8 7 15 15 15 8 0 15 7 15 15 0 8 -7 15 -15 15 -8 0
-15 7 -15 15 0 9 -9 15 -25 15 -16 0 -25 -6 -25 -15z"/>
<path d="M2070 1280 l0 -40 40 0 c36 0 40 3 40 25 0 14 -4 25 -10 25 -5 0 -10
7 -10 15 0 10 -10 15 -30 15 -28 0 -30 -2 -30 -40z"/>
<path d="M910 1250 c0 -5 -7 -10 -15 -10 -10 0 -15 -10 -15 -30 0 -20 5 -30
15 -30 8 0 15 -7 15 -15 0 -12 13 -15 55 -15 l55 0 0 45 c0 41 -2 45 -25 45
-14 0 -25 5 -25 10 0 6 -13 10 -30 10 -16 0 -30 -4 -30 -10z"/>
<path d="M1760 1210 c0 -20 -5 -30 -15 -30 -8 0 -15 -7 -15 -15 0 -8 7 -15 15
-15 8 0 15 -7 15 -15 0 -11 11 -15 40 -15 29 0 40 4 40 15 0 8 7 15 15 15 10
0 15 10 15 30 0 20 -5 30 -15 30 -8 0 -15 7 -15 15 0 11 -11 15 -40 15 -38 0
-40 -2 -40 -30z"/>
<path d="M1190 1050 c0 -29 4 -40 15 -40 8 0 15 -7 15 -15 0 -12 13 -15 55
-15 l55 0 0 55 0 55 -70 0 -70 0 0 -40z"/>
<path d="M1450 1080 c0 -5 -7 -10 -15 -10 -11 0 -15 -12 -15 -45 l0 -45 70 0
c56 0 70 3 70 15 0 8 7 15 15 15 10 0 15 10 15 30 0 29 -2 30 -45 30 -25 0
-45 5 -45 10 0 6 -11 10 -25 10 -14 0 -25 -4 -25 -10z"/>
<path d="M1050 1040 c0 -20 5 -30 15 -30 8 0 15 7 15 15 0 8 7 15 15 15 8 0
15 7 15 15 0 10 -10 15 -30 15 -27 0 -30 -3 -30 -30z"/>
<path d="M1160 575 c0 -8 -4 -15 -10 -15 -5 0 -10 -7 -10 -15 0 -8 5 -15 10
-15 6 0 10 -73 10 -200 0 -171 2 -200 15 -200 8 0 15 7 15 15 0 10 10 15 30
15 20 0 30 -5 30 -15 0 -12 13 -15 55 -15 42 0 55 3 55 15 0 8 7 15 15 15 8 0
15 7 15 15 0 8 7 15 15 15 12 0 15 16 15 85 0 69 -3 85 -15 85 -10 0 -15 10
-15 30 l0 30 -70 0 c-56 0 -70 -3 -70 -15 0 -8 -7 -15 -15 -15 -12 0 -15 18
-15 100 l0 100 -30 0 c-20 0 -30 -5 -30 -15z m170 -215 c0 -20 5 -30 15 -30
12 0 15 -13 15 -55 0 -42 -3 -55 -15 -55 -10 0 -15 -10 -15 -30 0 -28 -2 -30
-40 -30 -29 0 -40 4 -40 15 0 8 -7 15 -15 15 -12 0 -15 14 -15 70 0 56 3 70
15 70 8 0 15 7 15 15 0 8 7 15 15 15 8 0 15 7 15 15 0 9 9 15 25 15 21 0 25
-5 25 -30z"/>
<path d="M1900 575 c0 -10 -10 -15 -30 -15 -20 0 -30 -5 -30 -15 0 -11 12 -15
45 -15 l45 0 0 -185 0 -185 -45 0 c-33 0 -45 -4 -45 -15 0 -12 18 -15 100 -15
82 0 100 3 100 15 0 10 -10 15 -30 15 l-30 0 0 215 0 215 -40 0 c-29 0 -40 -4
-40 -15z"/>
<path d="M460 545 c0 -8 7 -15 15 -15 13 0 15 -27 15 -185 l0 -185 -30 0 c-20
0 -30 -5 -30 -15 0 -12 14 -15 70 -15 56 0 70 3 70 15 0 10 -10 15 -30 15
l-30 0 0 155 c0 131 2 155 15 155 11 0 15 -11 15 -40 0 -29 4 -40 15 -40 10 0
15 -10 15 -30 0 -20 5 -30 15 -30 10 0 15 -10 15 -30 0 -20 5 -30 15 -30 9 0
15 -9 15 -25 0 -16 6 -25 15 -25 10 0 15 -10 15 -30 0 -16 5 -30 10 -30 6 0
10 -7 10 -15 0 -8 7 -15 15 -15 13 0 15 29 15 200 l0 200 30 0 c20 0 30 5 30
15 0 12 -14 15 -70 15 -56 0 -70 -3 -70 -15 0 -9 9 -15 25 -15 l25 0 0 -130
c0 -80 -4 -130 -10 -130 -5 0 -10 14 -10 30 0 20 -5 30 -15 30 -10 0 -15 10
-15 30 0 20 -5 30 -15 30 -9 0 -15 9 -15 25 0 16 -6 25 -15 25 -10 0 -15 10
-15 30 0 20 -5 30 -15 30 -10 0 -15 10 -15 30 0 28 -2 30 -40 30 -29 0 -40 -4
-40 -15z"/>
<path d="M850 405 c0 -8 -7 -15 -15 -15 -8 0 -15 -7 -15 -15 0 -8 -4 -15 -10
-15 -6 0 -10 -35 -10 -85 0 -50 4 -85 10 -85 6 0 10 -7 10 -15 0 -8 7 -15 15
-15 8 0 15 -7 15 -15 0 -12 16 -15 85 -15 69 0 85 3 85 15 0 8 7 15 15 15 8 0
15 7 15 15 0 8 7 15 15 15 8 0 15 7 15 15 0 8 -7 15 -15 15 -8 0 -15 -7 -15
-15 0 -10 -10 -15 -30 -15 -20 0 -30 -5 -30 -15 0 -11 -11 -15 -40 -15 -29 0
-40 4 -40 15 0 8 -7 15 -15 15 -8 0 -15 7 -15 15 0 8 -7 15 -15 15 -9 0 -15 9
-15 25 l0 25 115 0 115 0 0 45 c0 33 -4 45 -15 45 -8 0 -15 7 -15 15 0 8 -7
15 -15 15 -8 0 -15 7 -15 15 0 12 -16 15 -85 15 -69 0 -85 -3 -85 -15z m140
-30 c0 -8 7 -15 15 -15 10 0 15 -10 15 -30 l0 -30 -85 0 c-69 0 -85 3 -85 15
0 8 7 15 15 15 8 0 15 7 15 15 0 8 7 15 15 15 8 0 15 7 15 15 0 11 11 15 40
15 29 0 40 -4 40 -15z"/>
<path d="M1480 405 c0 -8 5 -15 10 -15 6 0 10 -45 10 -115 0 -96 3 -115 15
-115 8 0 15 -7 15 -15 0 -12 13 -15 55 -15 42 0 55 3 55 15 0 8 7 15 15 15 8
0 15 -7 15 -15 0 -11 12 -15 45 -15 43 0 45 1 45 30 0 20 -5 30 -15 30 -12 0
-15 19 -15 115 l0 115 -45 0 c-33 0 -45 -4 -45 -15 0 -8 7 -15 15 -15 12 0 15
-18 15 -100 0 -82 -3 -100 -15 -100 -8 0 -15 -7 -15 -15 0 -9 -9 -15 -25 -15
-16 0 -25 6 -25 15 0 8 -7 15 -15 15 -12 0 -15 19 -15 115 l0 115 -40 0 c-29
0 -40 -4 -40 -15z"/>
<path d="M2210 405 c0 -8 -7 -15 -15 -15 -10 0 -15 -10 -15 -30 0 -27 3 -30
30 -30 20 0 30 5 30 15 0 8 7 15 15 15 8 0 15 7 15 15 0 9 9 15 25 15 16 0 25
-6 25 -15 0 -8 7 -15 15 -15 8 0 15 -7 15 -15 0 -8 -7 -15 -15 -15 -8 0 -15
-7 -15 -15 0 -12 -13 -15 -55 -15 -42 0 -55 -3 -55 -15 0 -8 -7 -15 -15 -15
-8 0 -15 -4 -15 -10 0 -5 -7 -10 -15 -10 -11 0 -15 -12 -15 -45 0 -33 4 -45
15 -45 8 0 15 -7 15 -15 0 -12 14 -15 70 -15 56 0 70 3 70 15 0 8 7 15 15 15
8 0 15 -7 15 -15 0 -12 13 -15 60 -15 l60 0 0 30 c0 20 -5 30 -15 30 -8 0 -15
-7 -15 -15 0 -8 -7 -15 -15 -15 -12 0 -15 19 -15 115 0 96 -3 115 -15 115 -8
0 -15 7 -15 15 0 12 -16 15 -85 15 -69 0 -85 -3 -85 -15z m140 -175 c0 -36 -2
-40 -25 -40 -16 0 -25 -6 -25 -15 0 -10 -10 -15 -30 -15 -20 0 -30 5 -30 15 0
8 -7 15 -15 15 -10 0 -15 10 -15 30 0 27 3 30 30 30 17 0 30 5 30 10 0 6 18
10 40 10 l40 0 0 -40z"/>
</g>
</svg>
