<?xml version="1.0" standalone="no"?>
<!DOCTYPE svg PUBLIC "-//W3C//DTD SVG 20010904//EN"
 "http://www.w3.org/TR/2001/REC-SVG-20010904/DTD/svg10.dtd">
<svg version="1.0" xmlns="http://www.w3.org/2000/svg"
  viewBox="0 0 172.000000 72.000000"
 preserveAspectRatio="xMidYMid meet">

<g transform="translate(0.000000,72.000000) scale(0.100000,-0.100000)"
fill="#FFFFFF" stroke="none">
<path d="M355 671 c-6 -11 9 -23 19 -14 9 9 7 23 -3 23 -6 0 -12 -4 -16 -9z"/>
<path d="M400 665 c0 -9 5 -15 11 -13 6 2 11 8 11 13 0 5 -5 11 -11 13 -6 2
-11 -4 -11 -13z"/>
<path d="M275 630 c-3 -5 3 -10 14 -10 12 0 21 5 21 10 0 6 -6 10 -14 10 -8 0
-18 -4 -21 -10z"/>
<path d="M482 628 c3 -7 13 -15 24 -17 16 -3 17 -1 5 13 -16 19 -34 21 -29 4z"/>
<path d="M197 614 c-9 -10 2 -24 19 -24 8 0 14 7 14 15 0 15 -21 21 -33 9z"/>
<path d="M355 590 c3 -5 8 -10 11 -10 2 0 4 5 4 10 0 6 -5 10 -11 10 -5 0 -7
-4 -4 -10z"/>
<path d="M400 580 c0 -23 4 -24 31 -10 27 15 24 30 -6 30 -18 0 -25 -5 -25
-20z"/>
<path d="M572 588 c3 -7 13 -15 22 -16 12 -3 17 1 14 10 -3 7 -13 15 -22 16
-12 3 -17 -1 -14 -10z"/>
<path d="M150 564 c0 -17 22 -14 28 4 2 7 -3 12 -12 12 -9 0 -16 -7 -16 -16z"/>
<path d="M500 566 c0 -28 20 -66 34 -66 9 0 20 9 26 19 8 16 5 23 -19 40 -34
25 -41 26 -41 7z"/>
<path d="M255 559 c-10 -15 3 -25 16 -12 7 7 7 13 1 17 -6 3 -14 1 -17 -5z"/>
<path d="M301 548 c-12 -32 0 -40 37 -27 35 12 38 19 20 37 -19 19 -48 14 -57
-10z"/>
<path d="M434 548 c-7 -11 29 -48 47 -48 10 0 12 21 3 44 -7 19 -40 21 -50 4z"/>
<path d="M626 552 c-3 -6 -1 -14 5 -17 15 -10 25 3 12 16 -7 7 -13 7 -17 1z"/>
<path d="M206 515 c-4 -10 1 -15 14 -15 11 0 20 7 20 15 0 8 -6 15 -14 15 -8
0 -16 -7 -20 -15z"/>
<path d="M571 501 c-8 -5 -10 -14 -7 -20 8 -13 46 -15 46 -2 0 16 -25 30 -39
22z"/>
<path d="M120 485 c0 -8 5 -15 10 -15 6 0 10 7 10 15 0 8 -4 15 -10 15 -5 0
-10 -7 -10 -15z"/>
<path d="M343 493 c-18 -6 -16 -38 2 -53 18 -15 21 -13 30 21 7 27 -7 41 -32
32z"/>
<path d="M392 479 c-12 -31 0 -93 18 -97 9 -1 31 13 50 33 34 35 34 35 15 54
-11 10 -32 21 -48 25 -22 5 -29 2 -35 -15z"/>
<path d="M203 470 c-20 -8 -21 -12 -12 -40 6 -16 16 -33 22 -37 15 -9 37 26
37 59 0 29 -10 33 -47 18z"/>
<path d="M654 459 c-10 -17 11 -33 32 -21 16 9 16 10 -4 21 -15 8 -23 8 -28 0z"/>
<path d="M536 451 c-8 -13 26 -71 41 -71 12 0 33 30 33 48 0 9 -43 32 -60 32
-5 0 -11 -4 -14 -9z"/>
<path d="M275 430 c-25 -28 -13 -50 29 -50 19 0 42 3 51 6 14 6 12 11 -11 35
-33 34 -45 36 -69 9z"/>
<path d="M476 415 c-25 -19 -14 -47 16 -43 17 2 23 10 23 27 0 29 -14 35 -39
16z"/>
<path d="M75 410 c-8 -13 4 -32 16 -25 12 8 12 35 0 35 -6 0 -13 -4 -16 -10z"/>
<path d="M152 404 c4 -21 22 -23 26 -1 2 10 -3 17 -13 17 -10 0 -15 -6 -13
-16z"/>
<path d="M1255 408 c-4 -13 -25 -136 -25 -150 0 -5 17 -8 38 -8 51 0 72 24 72
79 l0 43 -35 -4 c-35 -4 -36 -3 -30 24 7 28 -11 41 -20 16z m62 -74 c9 -24
-14 -64 -37 -64 -15 0 -20 7 -20 28 0 45 43 72 57 36z"/>
<path d="M976 359 c-4 -29 -10 -65 -13 -80 -3 -17 -1 -29 5 -29 6 0 16 26 23
58 13 61 10 62 43 -21 9 -22 21 -37 28 -35 12 4 42 147 33 156 -11 11 -23 -13
-30 -60 l-7 -53 -15 35 c-9 19 -19 45 -24 58 -15 40 -36 26 -43 -29z"/>
<path d="M1505 398 c-5 -15 -25 -127 -25 -140 0 -4 6 -8 14 -8 9 0 15 20 20
65 4 36 9 72 12 80 4 8 1 15 -5 15 -7 0 -14 -6 -16 -12z"/>
<path d="M615 389 c-10 -15 3 -25 16 -12 7 7 7 13 1 17 -6 3 -14 1 -17 -5z"/>
<path d="M695 370 c3 -5 8 -10 11 -10 2 0 4 5 4 10 0 6 -5 10 -11 10 -5 0 -7
-4 -4 -10z"/>
<path d="M150 330 c0 -48 14 -51 35 -10 18 34 13 50 -16 50 -16 0 -19 -7 -19
-40z"/>
<path d="M258 365 c-10 -10 5 -64 22 -80 17 -16 21 -15 56 18 50 46 42 67 -24
67 -27 0 -51 -2 -54 -5z"/>
<path d="M1140 350 c-15 -15 -20 -31 -18 -58 3 -34 6 -37 37 -40 18 -2 38 1
44 7 8 8 0 11 -26 11 -48 0 -48 18 1 22 35 3 37 5 37 38 0 31 -3 35 -27 38
-17 2 -34 -4 -48 -18z m60 -20 c0 -16 -7 -20 -30 -20 -28 0 -30 2 -20 20 6 11
20 20 30 20 13 0 20 -7 20 -20z"/>
<path d="M1366 354 c-3 -9 -6 -35 -6 -60 l0 -44 40 2 c23 1 42 4 44 7 2 3 7
30 11 59 8 61 -10 74 -21 15 -8 -44 -20 -63 -42 -63 -12 0 -13 9 -8 50 6 48
-5 69 -18 34z"/>
<path d="M1547 363 c-15 -15 -5 -22 23 -16 42 8 38 -13 -5 -27 -30 -10 -35
-16 -35 -41 0 -29 1 -30 43 -27 l42 3 3 58 3 57 -34 0 c-18 0 -37 -3 -40 -7z
m51 -70 c-4 -23 -48 -31 -48 -9 0 13 14 21 43 25 5 0 7 -7 5 -16z"/>
<path d="M72 343 c2 -10 10 -18 18 -18 8 0 16 8 18 18 2 12 -3 17 -18 17 -15
0 -20 -5 -18 -17z"/>
<path d="M430 355 c0 -9 62 -75 71 -75 14 0 30 40 24 60 -5 16 -15 20 -51 20
-24 0 -44 -2 -44 -5z"/>
<path d="M590 339 c0 -6 5 -19 11 -31 l11 -20 14 21 c9 12 12 26 9 31 -8 13
-45 13 -45 -1z"/>
<path d="M392 323 c-4 -10 -8 -34 -7 -53 0 -34 1 -35 39 -35 60 0 69 25 26 70
-39 40 -46 42 -58 18z"/>
<path d="M200 310 c-15 -28 -6 -50 20 -50 18 0 21 5 18 32 -4 38 -22 47 -38
18z"/>
<path d="M550 301 c-16 -31 -12 -41 15 -41 25 0 31 13 19 44 -8 21 -21 20 -34
-3z"/>
<path d="M335 280 c-21 -23 -13 -50 15 -50 16 0 20 6 20 35 0 40 -9 44 -35 15z"/>
<path d="M120 256 c0 -9 5 -16 10 -16 6 0 10 4 10 9 0 6 -4 13 -10 16 -5 3
-10 -1 -10 -9z"/>
<path d="M573 243 c-26 -5 -31 -31 -8 -40 9 -3 22 2 30 13 16 21 19 35 8 33
-5 -1 -18 -4 -30 -6z"/>
<path d="M190 226 c0 -19 26 -27 39 -12 13 15 4 26 -21 26 -10 0 -18 -6 -18
-14z"/>
<path d="M635 230 c3 -5 8 -10 11 -10 2 0 4 5 4 10 0 6 -5 10 -11 10 -5 0 -7
-4 -4 -10z"/>
<path d="M277 213 c-3 -5 0 -20 6 -35 12 -26 13 -26 45 -13 39 17 40 28 7 43
-30 14 -52 15 -58 5z"/>
<path d="M451 207 c-31 -16 -30 -29 3 -47 24 -13 28 -13 36 0 14 22 12 60 -2
60 -7 0 -24 -6 -37 -13z"/>
<path d="M236 191 c-7 -10 18 -34 27 -25 7 8 -3 34 -13 34 -5 0 -11 -4 -14 -9z"/>
<path d="M517 178 c-4 -12 -4 -24 -1 -27 8 -9 37 27 30 38 -11 17 -23 13 -29
-11z"/>
<path d="M650 190 c0 -5 5 -10 10 -10 6 0 10 5 10 10 0 6 -4 10 -10 10 -5 0
-10 -4 -10 -10z"/>
<path d="M140 170 c0 -5 7 -10 15 -10 8 0 15 5 15 10 0 6 -7 10 -15 10 -8 0
-15 -4 -15 -10z"/>
<path d="M610 155 c0 -8 5 -15 10 -15 6 0 10 7 10 15 0 8 -4 15 -10 15 -5 0
-10 -7 -10 -15z"/>
<path d="M342 149 c-26 -10 -21 -29 9 -29 12 0 19 7 19 20 0 11 -1 20 -2 19
-2 0 -13 -4 -26 -10z"/>
<path d="M397 146 c-7 -19 1 -26 30 -26 28 0 30 16 4 30 -25 13 -28 13 -34 -4z"/>
<path d="M172 141 c-11 -6 -10 -10 4 -15 20 -8 32 0 18 14 -5 5 -15 5 -22 1z"/>
<path d="M580 120 c0 -5 5 -10 10 -10 6 0 10 5 10 10 0 6 -4 10 -10 10 -5 0
-10 -4 -10 -10z"/>
<path d="M260 95 c7 -8 16 -15 21 -15 5 0 9 7 9 15 0 9 -9 15 -21 15 -18 0
-19 -2 -9 -15z"/>
<path d="M492 98 c6 -18 28 -21 28 -4 0 9 -7 16 -16 16 -9 0 -14 -5 -12 -12z"/>
<path d="M342 50 c15 -24 24 -25 31 -6 7 18 -1 26 -25 26 -16 0 -16 -3 -6 -20z"/>
<path d="M404 54 c3 -9 6 -17 6 -20 0 -2 7 -1 15 2 23 9 18 34 -6 34 -15 0
-19 -4 -15 -16z"/>
</g>
</svg>
